<svg width="44" height="210" viewBox="0 0 44 210" fill="none" xmlns="http://www.w3.org/2000/svg">
<g filter="url(#filter0_d_27_1220)">
<mask id="path-1-inside-1_27_1220" fill="white">
<path d="M8.20001 -2H35.2V208H8.20001V-2Z"/>
</mask>
<path d="M8.20001 -2H35.2V208H8.20001V-2Z" fill="black"/>
<path d="M35.2 -2H33.2V208H35.2H37.2V-2H35.2ZM8.20001 208H9.20001V-2H8.20001H7.20001V208H8.20001Z" fill="black" mask="url(#path-1-inside-1_27_1220)"/>
</g>
<mask id="path-3-inside-2_27_1220" fill="white">
<path d="M8.20001 138H35.2V185H8.20001V138Z"/>
</mask>
<path d="M8.20001 138H35.2V185H8.20001V138Z" fill="#FF0000"/>
<path d="M8.20001 138V141H35.2V138V135H8.20001V138ZM35.2 185V182H8.20001V185V188H35.2V185Z" fill="white" mask="url(#path-3-inside-2_27_1220)"/>
<defs>
<filter id="filter0_d_27_1220" x="1.23978e-05" y="-14.2" width="43.4" height="226.4" filterUnits="userSpaceOnUse" color-interpolation-filters="sRGB">
<feFlood flood-opacity="0" result="BackgroundImageFix"/>
<feColorMatrix in="SourceAlpha" type="matrix" values="0 0 0 0 0 0 0 0 0 0 0 0 0 0 0 0 0 0 127 0" result="hardAlpha"/>
<feMorphology radius="4" operator="dilate" in="SourceAlpha" result="effect1_dropShadow_27_1220"/>
<feOffset dy="-4"/>
<feGaussianBlur stdDeviation="2.1"/>
<feComposite in2="hardAlpha" operator="out"/>
<feColorMatrix type="matrix" values="0 0 0 0 1 0 0 0 0 1 0 0 0 0 1 0 0 0 0.25 0"/>
<feBlend mode="normal" in2="BackgroundImageFix" result="effect1_dropShadow_27_1220"/>
<feBlend mode="normal" in="SourceGraphic" in2="effect1_dropShadow_27_1220" result="shape"/>
</filter>
</defs>
</svg>
