<svg width="1729" height="1420" viewBox="0 0 1729 1420" fill="none" xmlns="http://www.w3.org/2000/svg">
<path d="M1162.31 45.3973C1162.76 45.8403 1163.21 46.2832 1164.08 47.1532C1167.67 50.6515 1170.83 53.7228 1174 56.7941C1174.09 56.9687 1174.18 57.1434 1174.52 57.8285C1176.79 61.0855 1178.83 63.8321 1180.86 66.5787C1180.95 66.7559 1181.04 66.933 1181.39 67.6337C1182.01 68.8794 1182.44 69.5811 1182.76 70.327C1185.89 77.6436 1189.73 84.7575 1188.68 93.1956C1188.51 94.5492 1189.2 96.0096 1189.49 97.4207C1189.42 98.245 1189.35 99.0694 1189.35 100.196C1188.68 103.148 1187.57 105.756 1187.26 108.456C1186.79 112.592 1189.24 115.14 1193.37 114.749C1198.08 114.302 1202.76 113.414 1206.49 110.024C1207.57 109.038 1208.88 108.286 1209.89 107.231C1220.15 96.4283 1233.93 93.479 1247.61 90.3279C1249.99 89.7791 1252.48 89.6458 1254.8 88.9238C1262.56 86.511 1270.48 86.144 1278.52 86.2854C1283.5 86.3729 1288.25 87.245 1292.85 89.0591C1295.58 90.1366 1298.35 91.1316 1301.01 92.372C1319.19 100.856 1337.53 109.01 1355.43 118.038C1369.51 125.133 1381.86 134.717 1391.81 147.211C1395.76 152.175 1400.16 156.825 1404.66 161.302C1415.19 171.762 1425.85 182.106 1436.6 192.338C1440.49 196.036 1444.91 199.168 1448.91 202.75C1458.08 210.948 1465.47 220.74 1473.14 230.267C1481.83 241.063 1491.1 251.443 1498.23 263.404C1507.62 279.16 1518.97 293.462 1530.36 307.765C1533.3 311.461 1535.73 315.561 1538.68 319.258C1545.27 327.553 1552.13 335.641 1558.7 343.958C1561.31 347.267 1563.94 350.728 1565.68 354.526C1568.5 360.706 1572.47 366.017 1576.54 371.333C1578.71 374.172 1580.91 377.013 1582.78 380.052C1585.88 385.109 1589.4 389.762 1594.16 393.36C1597.22 395.674 1599.05 398.494 1598.71 402.526C1598.47 405.32 1599.77 407.558 1601.78 409.435C1606.95 414.251 1610.68 420.246 1615.13 425.624C1620.39 431.976 1623.22 439.842 1628.64 445.903C1634.75 452.748 1638.81 460.361 1640.88 469.316C1642.52 476.445 1645.01 483.378 1647.14 490.393C1647.47 491.483 1647.65 492.746 1648.32 493.586C1653.34 499.832 1654.17 507.63 1656.43 514.903C1657.73 519.094 1659.24 523.219 1660.58 527.399C1661.22 529.41 1661.98 531.451 1662.17 533.526C1663.32 546.041 1664.07 558.544 1662.66 571.127C1661.59 580.679 1661.23 590.309 1660.48 599.897C1659.63 610.621 1658.6 621.332 1657.81 632.06C1657.28 639.212 1656.92 646.38 1656.67 653.546C1656.23 665.931 1655.91 678.321 1655.58 690.709C1655.2 704.892 1655.17 719.091 1654.44 733.255C1653.53 750.83 1651.95 768.371 1650.86 785.938C1650.26 795.537 1650.01 805.159 1649.71 814.773C1649.3 827.649 1649.02 840.529 1648.62 853.404C1648.57 855.018 1648.3 856.67 1647.84 858.217C1646.12 864.022 1644.62 869.833 1644.66 875.973C1644.69 879.849 1642.3 882.443 1638.94 883.781C1636.41 884.787 1633.59 885.505 1630.89 885.568C1623.4 885.744 1615.89 885.55 1608.4 885.425C1603.67 885.346 1598.94 884.939 1594.22 885.03C1590.02 885.111 1588.75 886.287 1588.1 890.521C1587 897.61 1585.85 904.712 1585.25 911.852C1584.52 920.532 1585.72 929.13 1587.84 937.556C1588.48 940.058 1589.37 942.642 1590.77 944.774C1596.23 953.069 1601.8 961.296 1607.62 969.34C1609.89 972.486 1613.01 975.014 1615.6 977.943C1622.43 985.649 1627.93 994.296 1633.19 1003.11C1636.36 1008.42 1639.44 1013.79 1642.67 1019.06C1647.51 1026.96 1649.46 1035.99 1652.69 1044.5C1655.58 1052.11 1657.79 1059.99 1660.28 1067.75C1660.63 1068.84 1660.99 1069.95 1661.08 1071.07C1661.57 1076.9 1662.4 1082.75 1662.29 1088.57C1662.1 1098.66 1664.48 1108.32 1666.41 1118.07C1668.42 1128.3 1670.67 1138.49 1672.55 1148.74C1674.32 1158.36 1675.92 1168.01 1677.24 1177.69C1678.14 1184.3 1678.42 1191 1678.99 1197.65C1679.09 1198.79 1679.06 1199.99 1679.45 1201.04C1682.98 1210.65 1683.18 1220.89 1685.12 1230.79C1685.65 1233.49 1686.54 1236.15 1687.56 1238.72C1689.5 1243.64 1690.85 1248.57 1689.83 1253.97C1689.17 1257.41 1689.93 1260.63 1691.63 1263.85C1692.87 1266.2 1693.43 1269.08 1693.64 1271.78C1693.97 1276.16 1693.48 1280.61 1693.86 1284.98C1694.18 1288.67 1694.77 1292.48 1696.05 1295.92C1702.01 1311.86 1709.09 1327.24 1719.17 1341.11C1723.62 1347.24 1724.52 1354.69 1725.9 1361.89C1726.76 1366.37 1727.25 1370.93 1728.3 1375.36C1729.3 1379.57 1728.73 1383.18 1725.39 1386.02C1722.55 1388.43 1719.65 1390.83 1716.56 1392.9C1713.42 1395 1710.28 1396.91 1708.43 1400.45C1707.81 1401.64 1706.52 1402.78 1705.27 1403.3C1700.62 1405.25 1695.93 1407.19 1691.12 1408.65C1684.25 1410.73 1677.28 1412.48 1670.3 1414.15C1668.32 1414.62 1666 1414.83 1664.11 1414.25C1656.6 1411.97 1648.87 1412.17 1641.3 1412.58C1634.89 1412.93 1628.59 1415.14 1622.21 1416.41C1619.84 1416.88 1617.17 1416.48 1615.02 1417.39C1609.4 1419.77 1603.56 1419.79 1597.7 1419.79C1589.55 1419.8 1581.39 1419.67 1573.25 1419.41C1568.93 1419.27 1564.95 1418.02 1561.46 1415.22C1559.99 1414.03 1558.03 1413.42 1556.24 1412.66C1554.59 1411.96 1552.84 1411.49 1551.2 1410.78C1548.98 1409.83 1547.34 1408.3 1547.25 1405.68C1547.15 1403.03 1548.71 1401.2 1550.93 1400.42C1556.04 1398.63 1558.8 1395.07 1560.48 1390.08C1561.1 1388.23 1562.75 1386.45 1564.39 1385.27C1566.74 1383.57 1569.43 1382.28 1572.11 1381.13C1578.43 1378.42 1584.6 1375.49 1590.03 1371.18C1591.68 1369.87 1593.64 1368.95 1595.34 1367.69C1599.25 1364.77 1603.12 1361.8 1606.92 1358.75C1610.09 1356.21 1613.07 1353.42 1616.27 1350.92C1619.96 1348.03 1622.8 1344.7 1624.12 1340.03C1625.74 1334.34 1626.9 1328.64 1626.85 1322.7C1626.79 1315.68 1626.95 1308.66 1626.79 1301.64C1626.72 1298.57 1626.14 1295.5 1625.76 1292.44C1625.53 1290.66 1625.06 1288.89 1625 1287.11C1624.55 1274.25 1620.68 1262.08 1617.62 1249.75C1616.59 1245.62 1614.48 1242.22 1611.04 1239.74C1608.59 1237.97 1607.71 1235.57 1607.22 1232.69C1605.33 1221.44 1601.51 1210.99 1593.98 1202.14C1590.66 1198.23 1588.65 1193.74 1587.39 1188.67C1585.24 1179.97 1582.43 1171.43 1579.88 1162.83C1578.69 1158.84 1576.57 1155.38 1573.57 1152.5C1571.24 1150.26 1570 1147.54 1569.19 1144.46C1567.15 1136.75 1565.36 1129 1562.25 1121.56C1559.94 1116.05 1558.91 1110 1557.25 1104.21C1556.8 1102.65 1556.12 1101.16 1555.54 1099.64C1552.75 1092.34 1549.8 1085.1 1547.23 1077.73C1545.4 1072.5 1544.12 1067.09 1542.53 1061.78C1542.16 1060.55 1541.66 1059.32 1541 1058.21C1538.29 1053.6 1535.26 1049.15 1532.77 1044.43C1529.66 1038.51 1527 1032.37 1524.08 1026.36C1523.23 1024.6 1522.33 1022.82 1521.16 1021.28C1515.92 1014.36 1511.61 1006.91 1507.99 999.026C1507.31 997.559 1506.27 996.262 1505.45 994.859C1503.64 991.774 1502.02 988.566 1500.04 985.604C1497.78 982.231 1495.18 979.085 1492.76 975.817C1489.95 972.029 1487.2 968.201 1484.39 964.416C1480.8 959.582 1477.58 954.383 1473.45 950.063C1469.07 945.482 1467.01 939.991 1464.9 934.336C1463.42 930.378 1461.79 926.467 1460.02 922.634C1457.82 917.902 1455.34 913.306 1453.11 908.589C1451.77 905.747 1449.79 903.932 1446.71 903.05C1429.3 898.056 1411.82 893.457 1393.86 890.703C1383.88 889.171 1374.03 886.729 1364.13 884.678C1360.78 883.983 1357.44 883.183 1354.09 882.511C1350.98 881.891 1348.25 882.579 1346.13 885.079C1343.7 887.939 1341.22 890.752 1338.86 893.667C1334.05 899.621 1329.15 905.516 1324.58 911.653C1321.2 916.197 1317.18 920.387 1315.4 925.991C1315.11 926.907 1314.68 927.903 1314.01 928.55C1309.74 932.678 1308.56 938.141 1307.59 943.603C1306.82 947.927 1306.21 952.335 1306.13 956.718C1305.66 980.203 1305.46 1003.69 1305 1027.18C1304.86 1034.02 1304.4 1040.87 1303.69 1047.67C1302.03 1063.72 1300.18 1079.74 1298.26 1095.76C1297.98 1098.14 1297.11 1100.51 1296.19 1102.75C1293.67 1108.88 1292.63 1115.23 1292.45 1121.84C1292.35 1125.37 1291.45 1128.88 1290.83 1132.38C1290.46 1134.47 1289.52 1136.53 1289.56 1138.59C1289.73 1147.09 1286.9 1154.9 1284.7 1162.92C1283.42 1167.59 1283.22 1172.56 1282.59 1177.4C1282.42 1178.69 1282.65 1180.07 1282.32 1181.3C1279.71 1191.02 1280.08 1201.3 1276.43 1210.85C1272.76 1220.46 1272.34 1230.59 1272.71 1240.77C1272.89 1245.83 1272.85 1250.83 1270.73 1255.68C1269.85 1257.67 1269.82 1260.16 1269.86 1262.41C1270.13 1278.39 1270.15 1294.39 1271.04 1310.34C1271.4 1316.75 1273.67 1323.07 1275.24 1329.4C1276.17 1333.19 1277.43 1336.91 1278.55 1340.66C1279.87 1345.03 1279.51 1349.38 1278.37 1353.71C1277.25 1357.91 1274.66 1360.16 1270.59 1362.24C1265.43 1364.89 1260.81 1364.21 1255.51 1364.1C1237.77 1363.72 1219.96 1363.32 1202.34 1366.46C1200.74 1366.74 1199.03 1366.56 1197.48 1367C1194.86 1367.75 1191.94 1368.32 1189.83 1369.89C1186.48 1372.38 1182.89 1373.33 1178.91 1373.53C1165.06 1374.22 1151.22 1374.87 1137.38 1375.65C1134.8 1375.8 1132.27 1376.57 1129.7 1376.94C1125.84 1377.49 1121.92 1378.63 1118.13 1378.31C1109.37 1377.56 1100.65 1376.22 1091.96 1374.83C1087.54 1374.13 1086.91 1373.1 1086.8 1369.12C1086.69 1364.55 1087.71 1362.88 1091.52 1361.67C1092.92 1361.23 1094.37 1360.91 1095.81 1360.69C1098.99 1360.18 1101.59 1358.75 1103.96 1356.56C1110.12 1350.86 1116.91 1346.52 1125.26 1344.21C1134.04 1341.79 1142.34 1337.78 1149.42 1331.73C1149.92 1331.31 1150.42 1330.81 1151.01 1330.59C1160.97 1326.87 1167.32 1318.31 1175.51 1312.22C1179.94 1308.92 1184.04 1305.17 1188.24 1301.55C1192.14 1298.17 1194.83 1293.84 1196.87 1289.2C1199.89 1282.33 1202.54 1275.31 1203.55 1267.77C1203.93 1264.88 1204.62 1261.98 1205.53 1259.21C1208.99 1248.66 1207.88 1237.93 1206.97 1227.22C1206.21 1218.15 1204.5 1209.08 1205.81 1199.98C1206.53 1195 1208.33 1190.16 1207.71 1185.03C1207.44 1182.79 1207.16 1180.44 1206.3 1178.4C1204.85 1174.98 1204.27 1171.54 1204.58 1167.89C1205.15 1161.3 1204.41 1154.94 1202.25 1148.61C1200.44 1143.32 1200.42 1137.75 1201.17 1132.15C1201.6 1128.95 1201.74 1125.65 1201.49 1122.43C1200.76 1112.84 1199.61 1103.28 1198.93 1093.69C1198.15 1082.65 1197.49 1071.59 1197.19 1060.53C1197.05 1055.34 1198 1050.12 1198.25 1044.91C1198.83 1033.04 1200.52 1021.2 1199.26 1009.26C1199.02 1007.04 1199.26 1004.64 1199.86 1002.48C1202.43 993.253 1202.77 983.819 1202.85 974.347C1202.86 972.886 1202.91 971.335 1202.47 969.975C1199.17 959.624 1198.86 948.854 1197.8 938.18C1197.37 933.803 1196.29 929.477 1196.03 925.097C1195.4 914.524 1195.04 903.934 1194.66 893.347C1194.47 888.343 1195.76 883.641 1198.18 879.272C1202.38 871.715 1206.63 864.189 1210.82 856.634C1217.72 844.218 1223.83 831.502 1227.27 817.582C1228.34 813.23 1230.38 808.966 1232.73 805.115C1236.03 799.694 1238.07 793.894 1238.96 787.766C1240.03 780.406 1241.79 773.379 1245.56 766.914C1246.38 765.512 1247.25 764.013 1247.54 762.455C1248.83 755.452 1252.36 749.328 1254.88 742.808C1256.22 739.342 1257.19 735.665 1257.77 731.995C1258.65 726.474 1260.9 721.863 1264.64 717.691C1266.98 715.079 1268.85 711.925 1270.39 708.75C1273.3 702.754 1275.71 696.517 1278.55 690.487C1279.65 688.154 1281.43 686.146 1282.8 683.929C1285.09 680.205 1287.27 676.405 1289.58 672.692C1290.61 671.051 1291.64 669.339 1293.01 668.01C1298.34 662.835 1302.58 656.93 1305.93 650.3C1309.11 643.996 1313.22 638.321 1318.51 633.574C1321 631.349 1322.65 628.73 1323.57 625.401C1324.12 623.385 1325.65 621.226 1327.36 620.028C1330.66 617.728 1331.93 614.862 1332.22 610.986C1332.45 607.776 1333.23 604.547 1334.21 601.465C1335.36 597.816 1337.9 595.262 1341.85 594.702C1347.64 593.884 1349.59 589.814 1350.39 584.836C1350.7 582.929 1350.68 580.899 1350.41 578.982C1349.66 573.657 1351.67 569.425 1355.18 565.669C1360.2 560.312 1365.19 554.93 1370.18 549.556C1370.96 548.72 1371.8 547.923 1372.47 547.008C1374.16 544.7 1374.55 542.21 1372.96 539.704C1371.51 537.426 1369.34 536.463 1366.66 536.885C1364.26 537.261 1361.73 538.338 1359.57 536.613C1356.38 534.075 1353.24 531.39 1351.68 527.448C1350.96 525.635 1350.42 523.736 1349.96 521.84C1349.14 518.558 1347.19 516.988 1343.76 516.678C1333.25 515.726 1333.2 515.655 1331.05 505.143C1330.55 502.717 1329.41 501.336 1326.95 501.052C1326.14 500.958 1325.33 500.81 1324.54 500.611C1320.49 499.592 1319.42 497.948 1320.16 493.912C1321.26 487.879 1320.83 486.803 1315.49 484.398C1312.5 483.056 1310.56 480.933 1308.79 478.247C1307.13 475.716 1304.98 473.371 1302.64 471.453C1300.41 469.637 1298.43 467.865 1297.73 465.002C1297.09 462.371 1295.29 460.846 1292.92 459.855C1289.58 458.467 1287.24 456.168 1285.92 452.746C1285.4 451.414 1284.44 450.243 1283.6 449.051C1281.84 446.537 1279.83 444.178 1278.29 441.539C1274.79 435.552 1268.36 432.268 1261.53 433.54C1257.15 434.354 1253.55 433.551 1250.57 429.998C1246.79 425.488 1241.6 423.008 1236.31 420.793C1232 418.989 1230.49 419.86 1229.56 424.592C1227.1 437.067 1224.96 449.636 1220.81 461.681C1218.31 468.906 1215.37 476.018 1212.05 482.903C1207.31 492.745 1201.96 502.29 1197.02 512.038C1191.67 522.585 1184.6 531.97 1177.55 541.362C1173.09 547.312 1169.57 553.545 1167.94 560.931C1165.76 570.857 1161.94 580.277 1157.17 589.217C1155.06 593.189 1151.92 596.659 1149.01 600.162C1141.41 609.313 1133.6 618.281 1126.04 627.463C1118.79 636.265 1111.89 645.35 1104.58 654.103C1100.2 659.355 1095.34 664.208 1090.7 669.241C1082.07 678.588 1073.8 688.291 1064.74 697.196C1052.77 708.964 1040.13 720.055 1027.88 731.541C1022.29 736.785 1016.96 742.308 1011.44 747.639C1009.73 749.29 1009.24 751.171 1009.62 753.414C1009.81 754.539 1010.03 755.67 1010.09 756.805C1010.41 763.054 1006.75 767.782 1000.62 769.117C994.944 770.354 994.78 770.573 995.318 776.215C995.995 783.308 993.64 786.108 986.475 786.715C985.662 786.784 984.845 786.87 984.032 786.855C981.377 786.807 979.761 788.04 979.037 790.607C977.568 795.814 974.02 798.25 968.683 798.727C964.002 799.147 963.894 799.477 963.185 803.96C962.323 809.406 960.516 810.979 955.105 810.99C954.778 810.991 954.429 811.058 954.129 810.966C946.07 808.495 941.861 813.561 938.597 819.438C932.912 829.673 925.34 838.828 921.17 849.921C919.754 853.689 917.027 856.092 913.295 857.44C912.989 857.551 912.677 857.661 912.392 857.817C904.546 862.126 897.474 861.885 891.492 854.438C888.576 850.809 885.196 850.594 881.099 852.821C876.958 855.072 872.551 856.882 868.145 858.586C863.411 860.416 858.699 861.229 854.591 856.841C853.844 856.043 852.225 855.933 850.975 855.775C849.862 855.635 848.702 855.89 847.561 855.932C843.236 856.093 842.026 855.526 841.147 852.959C839.897 849.31 840.752 845.805 843.599 843.764C851.807 837.881 860.145 832.177 868.257 826.167C871.359 823.869 874.045 820.991 876.794 818.249C877.559 817.486 878.054 816.316 878.344 815.243C878.838 813.421 878.633 811.625 876.941 810.403C875.299 809.218 873.528 809.309 871.905 810.386C870.83 811.1 869.864 812.015 868.965 812.951C863.749 818.381 858.1 823.238 851.813 827.449C846.82 830.794 842.317 834.865 837.511 838.5C835.602 839.944 833.469 842.062 830.953 840.763C828.178 839.33 829.012 836.233 829.024 833.691C829.038 830.534 830.229 828.37 833.265 826.673C836.314 824.968 839.165 822.49 841.357 819.753C847.547 812.022 855.128 805.884 862.809 799.804C869.042 794.87 873.312 788.276 877.657 781.781C878.534 780.469 879.074 778.798 879.319 777.223C879.948 773.182 877.137 770.775 873.375 772.332C869.776 773.821 866.328 775.736 862.962 777.717C857.971 780.656 852.866 783.129 846.905 782.899C845.136 782.831 843.256 782.667 841.648 782.008C838.311 780.64 838.051 777.998 840.804 775.63C841.173 775.312 841.625 775.09 841.995 774.773C845.582 771.703 849.36 768.821 852.679 765.483C855.559 762.587 858.794 760.838 862.683 759.744C866.587 758.646 870.364 757.044 874.104 755.448C875.562 754.826 876.93 753.776 878.055 752.64C880.263 750.412 880.495 747.802 878.156 745.754C874.376 742.444 870.303 739.435 866.146 736.604C863.509 734.808 860.54 734.993 857.883 736.939C850.162 742.597 849.581 741.923 842.368 736.015C835.878 730.7 828.512 727.136 820.42 724.547C809.717 721.122 799.417 716.456 788.858 712.556C759.873 701.851 733.505 686.39 708.093 669.014C698.427 662.405 688.82 655.612 678.202 650.425C673.099 647.932 668.363 644.631 663.644 641.426C658.47 637.912 655.464 632.649 653.062 627.026C646.522 611.72 640.111 596.359 633.44 581.11C626.889 566.133 618.802 551.949 610.475 537.906C609.481 536.23 608.074 534.799 607.079 533.123C604.505 528.789 601.441 524.616 599.677 519.96C595.232 508.22 591.397 496.249 587.311 484.374C586.356 481.597 585.538 478.758 584.363 476.076C582.793 472.495 580.891 471.943 577.301 473.645C570.674 476.786 564.118 480.089 557.407 483.04C544.125 488.88 530.699 494.398 517.446 500.304C510.002 503.621 504.234 509.099 499.58 515.779C495.95 520.991 492.612 526.473 488.465 531.244C478.511 542.693 465.329 548.952 451.119 553.443C447.92 554.455 444.756 555.957 441.968 557.819C435.656 562.036 429.36 565.945 421.361 565.824C418.311 565.777 415.67 567.225 413.484 569.322C411.288 571.426 408.826 572.673 405.736 573.072C401.319 573.642 400.498 574.583 400.436 579.131C400.353 585.345 400.409 591.563 398.434 597.54C397.263 601.086 395.824 604.545 394.473 608.03C394.061 609.091 393.417 610.074 393.096 611.157C391.638 616.078 393.342 618.545 398.496 619.106C404.147 619.721 405.386 620.942 406.006 626.662C406.163 628.119 406.251 629.6 406.183 631.062C405.956 635.97 407.361 640.136 410.215 644.295C412.941 648.267 414.617 653.015 416.399 657.562C417.711 660.909 419.67 663.495 422.634 665.465C423.98 666.361 425.118 667.568 426.365 668.615C429.465 671.219 430.522 674.594 430.721 678.574C430.946 683.096 431.408 687.658 432.35 692.079C433.171 695.936 435.293 699.331 438.304 702.02C442.488 705.757 444.144 710.622 444.303 716.012C444.518 723.268 446.128 730.189 448.291 737.088C454.589 757.171 460.67 777.322 466.861 797.439C467.435 799.306 468.218 801.109 468.838 802.964C469.458 804.815 470.263 806.657 470.527 808.566C474.373 836.33 482.452 862.982 491.424 889.424C494.62 898.843 497.973 908.302 500 918.005C503.216 933.395 501.3 948.267 491.701 961.339C487.947 966.45 483.843 971.338 479.557 976.015C472.397 983.83 465.178 991.615 457.592 999.012C446.788 1009.55 438.381 1021.47 433.127 1035.73C428.429 1048.49 421.407 1060.1 414.184 1071.59C406.977 1083.06 400.226 1094.81 393.097 1106.32C388.55 1113.67 383.657 1120.8 378.956 1128.04C368.848 1143.63 358.928 1159.32 350.577 1175.96C343.683 1189.69 337.817 1203.87 332.505 1218.25C328.75 1228.41 327.522 1239.19 326.998 1249.97C326.697 1256.16 326.696 1262.39 327.036 1268.57C327.248 1272.44 328.182 1276.29 329.093 1280.08C329.905 1283.46 332.624 1285.43 335.297 1287.37C339.37 1290.34 343.35 1293.43 347.432 1296.38C349.139 1297.61 350.912 1298.83 352.816 1299.7C360.084 1303.02 367.558 1305.91 374.686 1309.5C381.368 1312.87 387.841 1316.71 394.154 1320.73C398.139 1323.27 402.033 1324.72 406.902 1324.73C411.714 1324.74 416.54 1326.06 421.33 1326.96C428.209 1328.26 435.088 1329.58 441.91 1331.14C445.214 1331.89 448.511 1332.95 451.588 1334.35C454.978 1335.9 456.338 1338.92 455.907 1342.37C455.499 1345.63 453.7 1347.92 449.893 1348.51C444.111 1349.39 438.253 1349.95 432.408 1350.22C419.869 1350.78 407.31 1350.91 394.774 1351.53C381.426 1352.18 368.09 1353.13 354.761 1354.1C352.042 1354.3 349.29 1354.96 346.702 1355.85C338.584 1358.61 331.355 1357.86 325.121 1351.41C319.406 1345.48 312.64 1341.95 304.216 1340.81C291.304 1339.07 278.512 1336.43 265.685 1334.08C256.223 1332.34 246.725 1330.73 237.358 1328.57C229.495 1326.75 222.609 1323.07 216.493 1317.41C207.419 1309.03 205.721 1291.84 215.656 1281.55C222.87 1274.08 228.688 1265.66 234.356 1257.11C237.949 1251.69 241.015 1245.87 243.811 1239.99C250.255 1226.43 256.483 1212.77 262.611 1199.07C265.539 1192.52 268.098 1185.81 270.706 1179.12C271.889 1176.09 272.681 1172.91 273.839 1169.87C275.109 1166.53 276.575 1163.27 278.002 1160C278.456 1158.95 279.245 1158.03 279.56 1156.96C281.765 1149.46 284.482 1142.05 285.85 1134.39C286.983 1128.06 288.368 1121.86 291.077 1116.13C294.156 1109.6 294.482 1102.55 295.813 1095.73C297.398 1087.6 299.496 1079.47 298.986 1071.02C298.907 1069.72 299.815 1068.33 300.373 1067.02C300.748 1066.14 301.81 1065.26 301.681 1064.54C301.451 1063.26 300.823 1061.68 299.834 1061.03C299.152 1060.59 296.771 1061.23 296.544 1061.87C295.359 1065.25 292.396 1066.05 289.782 1067.67C287.208 1069.25 285.216 1071.81 283.018 1073.98C278.395 1078.57 273.869 1083.25 269.189 1087.77C261.682 1095.03 254.011 1102.11 246.559 1109.42C243.546 1112.38 241.116 1115.93 238.084 1118.86C233.879 1122.93 229.448 1126.78 224.937 1130.51C222.318 1132.68 219.323 1134.38 216.552 1136.37C214.972 1137.51 213.489 1138.78 211.986 1140.02C205.453 1145.42 198.685 1150.56 192.465 1156.29C185.04 1163.14 177.767 1170.21 170.999 1177.7C158.371 1191.67 147.865 1207.26 138.601 1223.6C129.754 1239.21 123.789 1255.92 122.259 1273.97C121.778 1279.65 121.632 1285.35 121.283 1291.05C120.69 1300.71 123.233 1309.75 126.299 1318.78C128.968 1326.64 130.839 1334.77 133.474 1342.64C135.065 1347.4 136.891 1352.25 139.578 1356.43C145.704 1365.97 153.054 1374.5 163.367 1379.86C166.103 1381.28 168.967 1382.47 171.823 1383.65C176.644 1385.63 181.517 1387.49 186.346 1389.46C189.266 1390.65 190.795 1393.03 190.438 1396.03C190.019 1399.56 189.254 1403.11 188.046 1406.44C187.544 1407.82 185.638 1408.91 184.132 1409.65C182.875 1410.26 181.255 1410.1 179.823 1410.4C175.864 1411.25 171.952 1412.36 167.963 1413C163.312 1413.74 158.611 1414.32 153.911 1414.55C148.393 1414.82 142.852 1414.7 137.323 1414.64C118.24 1414.44 99.1578 1414.24 80.0774 1413.92C76.0816 1413.86 73.1219 1411.63 70.6334 1408.54C68.3019 1405.65 65.5742 1403.08 63.1717 1400.24C60.0333 1396.54 56.6472 1392.95 54.0846 1388.86C50.4534 1383.07 47.2375 1376.98 44.2789 1370.81C40.4048 1362.73 36.9542 1354.45 33.3239 1346.25C33.1918 1345.95 33.0447 1345.65 32.9722 1345.34C29.5835 1330.62 20.8917 1318.33 14.5448 1304.96C10.5605 1296.57 6.2172 1288.31 2.90746 1279.65C-3.39967 1263.16 0.34287 1244 16.2134 1232.48C18.3259 1230.94 20.336 1229.19 22.63 1228C30.2977 1224 36.1543 1217.89 42.2625 1211.98C58.6206 1196.16 73.4532 1179.04 86.3335 1160.3C98.7122 1142.29 110.715 1124.01 122.892 1105.86C123.707 1104.65 124.434 1103.32 125.469 1102.31C130.844 1097.11 134.538 1090.79 137.676 1084.11C144.477 1069.65 150.968 1055.04 158.005 1040.69C168.648 1018.99 183.343 1000.53 202.618 985.716C211.702 978.735 221.061 972.306 231.3 967.167C232.313 966.658 233.304 966.034 234.164 965.298C241.238 959.246 249.797 956.038 258.169 952.373C263.372 950.096 268.294 947.124 273.18 944.194C276.422 942.25 278.147 939.187 278.415 935.27C278.581 932.847 279.063 930.416 279.669 928.057C281.304 921.699 280.651 915.743 276.83 910.303C273.363 905.365 269.727 900.543 266.325 895.561C259.705 885.865 253.101 876.155 246.67 866.333C240.595 857.057 234.705 847.659 228.825 838.257C225.744 833.329 224.434 832.56 218.806 834.213C213.322 835.825 207.876 835.724 202.342 834.794C198.884 834.212 196.975 832.307 196.11 828.839C195.129 824.91 193.564 821.131 192.4 817.244C191.7 814.91 191.179 812.51 190.754 810.108C189.733 804.329 188.755 798.54 187.879 792.737C187.32 789.034 186.752 785.309 186.585 781.576C186.341 776.132 185.169 770.987 183.356 765.842C180.106 756.617 177.334 747.224 174.305 737.92C171.173 728.301 167.829 718.749 164.832 709.089C158.742 689.458 152.877 669.759 146.802 650.124C145.067 644.517 142.979 639.017 140.969 633.499C136.084 620.081 132.925 606.212 131.518 592.068C129.264 569.43 131.23 547.011 138.081 525.278C141.507 514.409 146.184 503.933 150.347 493.3C150.877 491.945 151.524 490.548 152.449 489.451C158.011 482.853 163.66 476.328 169.307 469.802C170.051 468.942 170.81 467.888 171.793 467.475C178.411 464.694 182.217 458.775 186.99 453.969C190.256 450.68 193.784 447.928 198.016 446.008C201.59 444.386 204.892 442.424 207.301 439.06C208.369 437.569 210.382 436.744 211.99 435.651C215.08 433.553 218.288 431.612 221.257 429.355C223.751 427.458 225.207 424.829 226.443 421.842C227.502 419.285 229.788 417.154 231.792 415.087C235.637 411.122 239.817 407.475 243.573 403.431C246.632 400.138 250.092 397.539 254.081 395.569C257.689 393.786 260.338 391.388 261.93 387.365C264.11 381.859 268.03 377.326 272.607 373.552C274.186 372.251 276.273 371.378 278.27 370.81C282.71 369.547 286.097 366.972 288.968 363.461C303.472 345.724 320.313 330.218 336.734 314.372C353.528 298.165 372.379 284.329 391.283 270.657C406.616 259.568 421.809 248.271 437.407 237.566C461.597 220.962 487.435 207.495 515.393 198.287C530.131 193.434 544.548 187.764 558.334 180.592C560.352 179.542 562.428 178.458 564.131 176.989C566.404 175.029 565.851 172.498 563.164 171.192C561.935 170.595 560.7 170.013 558.601 169.01C560.338 167.92 561.136 167.103 562.075 166.881C569.047 165.226 576.047 163.689 583.039 162.119C583.357 162.047 583.687 161.944 584.003 161.967C591.383 162.49 597.44 159.204 603.735 155.859C616.425 149.115 629.532 143.201 643.912 140.893C646.639 140.456 649.418 140.267 652.181 140.135C655.7 139.966 657.968 138.354 659.078 134.972C660.547 130.498 661.756 126.004 662.772 121.372C664.894 111.703 666.028 101.721 670.105 92.5329C670.369 91.9386 670.659 91.3256 670.759 90.6932C672.268 81.1958 677.144 73.4686 683.126 66.182C685.362 63.4582 686.912 60.0976 688.414 56.8595C691.611 49.9627 695.579 43.6929 701.577 38.8711C702.081 38.4657 702.682 38.0253 702.917 37.466C704.547 33.5956 708.165 31.3946 710.547 28.3308C715.788 21.5906 723.02 17.5442 729.918 13.6991C737.132 9.67777 745.724 7.55102 753.976 6.19196C758.803 5.39706 764.293 7.24502 769.206 8.79087C773.315 10.084 777.297 11.1832 781.601 10.9636C785.615 10.7587 789.239 11.5766 792.712 13.8977C794.432 15.0471 797.01 15.4071 799.159 15.3011C802.331 15.1445 805.296 15.1404 808.159 16.7529C809.262 17.3736 810.62 17.5522 811.875 17.8842C812.66 18.0921 813.733 17.9363 814.226 18.4119C818.363 22.4037 824.385 22.5439 828.934 25.7571C830.851 27.1112 833.407 27.5453 835.646 28.4621C838.167 29.4939 840.832 30.3196 843.111 31.7502C845.361 33.1626 847.453 34.4646 850.218 34.6524C851.775 34.7582 853.586 35.2283 854.759 36.1799C859.817 40.2832 864.773 44.4846 868.048 50.3515C869.694 53.299 871.821 56.0447 874.091 58.5556C876.082 60.7572 877.215 63.0426 877.106 66.0056C876.928 70.8777 876.512 75.7238 879.406 80.2062C880.661 82.1509 879.593 84.5329 878.159 86.0991C875.649 88.8408 873.09 91.7279 870.01 93.7133C865.53 96.6017 863.966 100.199 864.896 105.306C865.59 109.116 865.257 113.186 868.436 116.29C866.835 118.544 865.057 120.468 863.981 122.726C862.947 124.896 862.581 127.399 862.04 129.782C861.753 131.046 861.526 132.378 861.599 133.661C862.062 141.778 860.675 149.531 857.737 157.12C856.131 161.267 857.221 164.084 860.68 165.825C862.038 166.509 863.8 166.398 865.382 166.629C867.283 166.907 869.642 166.542 871.01 167.541C876.146 171.292 881.859 171 887.479 170.163C892.035 169.484 896.488 169.284 901.076 169.451C909.062 169.742 917.067 169.46 925.061 169.6C930.27 169.692 935.478 170.045 940.679 170.39C945.784 170.729 950.724 170.433 955.562 168.412C958.073 167.362 960.892 167.014 963.597 166.472C966.109 165.969 968.423 165.196 969.289 162.5C970.207 159.646 969.084 157.286 966.827 155.611C964.615 153.97 962.237 152.522 959.814 151.206C957.559 149.982 955.655 148.528 955.126 145.907C953.207 136.386 949.135 127.663 945.264 118.858C943.194 114.15 942.448 109.167 942.456 104.05C942.464 99.1529 942.542 94.254 942.431 89.3595C942.159 77.3179 945.621 66.5461 953.057 57.0436C954.865 54.7331 956.31 52.1211 958.24 49.9274C960.589 47.257 963.083 44.6448 965.848 42.4225C975.107 34.981 984.343 27.4916 993.915 20.4657C1002.72 14.002 1011.94 8.06164 1022.73 5.30695C1029.34 3.61847 1035.98 1.98045 1042.68 0.663879C1050.37 -0.848235 1058.01 0.446286 1065.45 2.30826C1073.17 4.23783 1080.98 6.02582 1087.58 11.0485C1090.12 12.9843 1093.42 13.8964 1096.23 15.5262C1102.48 19.155 1107.84 23.9013 1112.88 29.0729C1117.24 33.5481 1119.01 33.4896 1123.5 29.3087C1124.82 28.0876 1126.03 26.7552 1127.31 25.4962C1131.26 21.6055 1134.22 21.1293 1139.19 23.6258C1140.5 24.2825 1141.75 25.0603 1143.35 25.856C1143.81 26.0434 1143.94 26.1572 1144.46 26.6507C1146.38 28.2051 1147.9 29.3796 1149.43 30.5542C1149.43 30.5542 1149.43 30.4421 1149.49 30.7735C1151.5 34.081 1153.46 37.0572 1155.41 40.0334C1155.92 40.6321 1156.43 41.2309 1157.35 42.2232C1159.28 43.5436 1160.8 44.4704 1162.31 45.3973ZM912.183 341.384C914.296 341.518 916.416 341.833 918.52 341.747C923.053 341.561 927.096 342.559 931.05 344.983C935.841 347.921 941.189 349.216 946.965 348.795C956.545 348.096 966.148 347.71 975.738 347.132C977.191 347.044 978.621 346.431 980.069 346.401C986.567 346.265 993.207 345.384 999.533 346.406C1008.22 347.809 1016.68 348.092 1025.26 346.357C1027 346.005 1028.81 345.885 1030.6 345.856C1035.46 345.777 1040.33 345.718 1045.19 345.839C1046.77 345.878 1048.32 346.652 1049.91 346.814C1051.6 346.987 1053.69 347.452 1054.97 346.704C1058.34 344.742 1061.79 345.042 1065.4 345.011C1069.93 344.971 1074.71 345.175 1078.96 343.886C1091.71 340.016 1104.26 335.473 1116.89 331.188C1119.83 330.192 1122.78 329.237 1125.68 328.147C1128.18 327.207 1130.61 325.866 1131.37 323.152C1132.66 318.486 1135.94 315.38 1139.11 312.077C1145.1 305.844 1149.53 298.79 1150.86 289.985C1151.53 285.482 1152.47 280.947 1153.95 276.655C1155.93 270.928 1156.33 265.502 1155 259.444C1153.67 253.375 1151.05 249.621 1144.9 248.581C1142.34 248.148 1140.66 246.864 1140.71 244.064C1140.78 239.487 1137.93 237.486 1134.09 236.097C1130.73 234.879 1127.17 233.815 1124.23 231.886C1115.35 226.076 1105.74 224.12 1095.31 224.908C1090.65 225.259 1086.27 226.32 1082.22 228.541C1074.79 232.615 1067.54 237.045 1059.99 240.882C1056.13 242.845 1051.87 244.575 1047.62 245.111C1041.22 245.921 1035.26 247.848 1029.22 249.872C1024.76 251.365 1020.12 252.469 1015.48 253.184C1008.08 254.322 1000.62 255.083 993.173 255.837C984.422 256.722 975.658 257.493 966.89 258.195C958.447 258.871 949.99 259.363 941.544 260.003C937.651 260.298 933.767 261.114 929.885 261.077C908.524 260.876 887.165 260.482 865.805 260.163C863.521 260.129 861.227 260.284 858.954 260.125C851.963 259.639 844.911 259.474 838.013 258.367C831.303 257.29 824.757 257.258 818.063 258.15C814.502 258.624 812.62 260.218 811.409 263.549C808.281 272.152 801.927 276.701 792.782 276.688C787.427 276.681 782.036 276.165 776.728 275.409C772.124 274.753 768.579 275.834 765.262 279.191C760.602 283.908 756.677 289.205 751.437 293.536C742.159 301.202 733.823 310.018 725.203 318.465C723.246 320.384 721.579 322.656 720.049 324.946C711.53 337.692 703.349 350.672 694.505 363.185C691.028 368.105 690.478 372.782 691.54 378.357C692.479 383.288 692.848 388.343 693.22 393.362C693.667 399.412 692.004 405.292 691.449 411.219C690.681 419.428 688.385 427.203 686.833 435.175C686.339 437.715 686.116 439.98 687.507 442.215C688.952 444.536 689.263 447.022 688.999 449.729C688.323 456.676 689.238 463.341 692.732 469.551C693.503 470.922 694.062 472.618 694.08 474.172C694.148 480.352 696.178 486.01 698.194 491.716C701.403 500.793 704.713 509.843 707.564 519.035C710.61 528.857 713.131 538.804 713.015 549.268C712.984 552.074 714.26 554.918 715.081 557.701C715.808 560.168 717.052 562.517 717.516 565.021C718.65 571.134 720.751 576.735 725.654 580.758C730.548 584.774 735.699 588.477 740.76 592.286C742.187 593.36 743.736 594.273 745.158 595.353C754.899 602.748 764.572 610.235 774.364 617.562C786.103 626.346 797.877 635.085 809.775 643.651C812.774 645.81 816.309 647.223 819.585 649.003C821.422 650.001 823.275 650.981 825.043 652.092C826.556 653.043 827.839 654.419 829.429 655.178C841.629 660.995 853.09 668.41 866.198 672.276C867.127 672.55 867.992 673.048 868.875 673.466C872.696 675.28 876.566 677.001 880.308 678.967C882.127 679.923 883.765 681.268 885.375 682.573C887.501 684.297 889.338 686.44 891.624 687.892C895.751 690.511 900.136 692.718 904.378 695.159C908.158 697.335 912.224 698.112 916.55 698.318C922.73 698.611 928.894 699.249 935.062 699.777C940.421 700.236 945.767 700.956 951.135 701.173C955.976 701.37 960.336 701.956 964.148 705.595C967.319 708.623 971.777 707.424 974.021 703.526C977.434 697.596 982.194 693.086 987.865 689.324C989.957 687.936 991.768 685.883 993.199 683.786C997.145 678.005 1000.45 671.79 1005.69 666.943C1007.1 665.645 1007.96 663.771 1009.12 662.193C1011.42 659.041 1013.86 655.979 1016.06 652.755C1019.09 648.319 1022.6 644.055 1024.75 639.208C1030.02 627.363 1036.53 616.297 1043.81 605.631C1046.1 602.268 1049.48 599.171 1050.41 595.462C1051.72 590.255 1054.71 586.976 1058.5 583.836C1059.87 582.704 1061.03 581.285 1062.1 579.856C1066.5 573.993 1070.55 567.851 1075.24 562.242C1079.85 556.734 1084.26 551.17 1087.36 544.669C1088.76 541.753 1090.16 538.836 1091.41 535.857C1092.91 532.268 1091.91 528.562 1091.98 524.896C1092.05 521.227 1094.39 517.667 1094.14 513.594C1093.94 510.202 1093.86 506.62 1094.71 503.381C1097.11 494.24 1099.76 485.145 1102.78 476.193C1107.44 462.443 1112.49 448.828 1117.36 435.152C1117.69 434.232 1117.98 433.288 1118.17 432.331C1118.98 428.235 1118.02 426.973 1113.82 426.74C1110.07 426.532 1106.32 426.516 1102.58 426.283C1089.41 425.461 1076.25 424.317 1063.07 423.831C1055.93 423.568 1048.73 424.183 1041.59 424.772C1030.71 425.67 1019.86 426.904 1008.99 427.96C1006.08 428.244 1003.15 428.549 1000.22 428.584C989.955 428.71 979.657 428.136 969.515 430.465C967.463 430.936 965.305 430.946 963.195 431.153C958.319 431.633 957.303 430.807 957.036 426.065C956.936 424.273 957.06 422.464 956.871 420.684C956.597 418.095 956.342 415.473 955.705 412.96C954.583 408.531 952.152 407.114 947.664 408.25C945.471 408.805 943.393 409.827 941.276 410.672C939.915 411.215 938.628 412.127 937.226 412.348C927.095 413.938 917.17 417.028 906.794 416.841C896.038 416.647 885.284 416.022 874.532 416.081C866.234 416.126 857.93 416.806 849.649 417.465C845.96 417.759 842.478 417.439 839.139 415.929C836.284 414.638 835.043 412.325 835.146 409.272C835.241 406.43 837.154 405.534 839.41 404.636C844.703 402.531 849.964 400.332 855.128 397.933C856.249 397.412 857.461 395.986 857.652 394.817C857.967 392.893 856.249 392.029 854.547 391.728C853.273 391.502 851.92 391.342 850.656 391.523C845.825 392.215 841.017 393.061 836.2 393.84C834.122 394.176 832.046 394.698 829.959 394.757C827.47 394.828 825.616 393.433 824.504 391.237C823.31 388.878 823.958 386.57 825.747 384.979C827.632 383.302 829.824 381.599 832.176 380.91C835.085 380.058 838.298 380.265 841.375 379.962C843.639 379.738 845.923 379.567 848.146 379.116C850.094 378.722 851.263 377.383 851.249 375.28C851.234 372.971 849.942 371.633 847.777 371.202C846.509 370.95 845.181 370.854 843.887 370.902C834.151 371.26 824.833 373.469 816.085 377.745C813.002 379.252 809.964 380.002 806.655 379.212C803.853 378.544 802.855 376.84 803.655 374.107C804.503 371.207 806.06 368.785 808.826 367.262C810.247 366.48 811.645 365.605 812.901 364.584C814.556 363.239 815.398 361.451 814.271 359.398C813.252 357.54 811.379 357.307 809.549 357.78C806.554 358.554 803.596 359.489 800.652 360.446C797.09 361.605 794.851 360.978 793.558 358.333C792.4 355.962 793.11 353.554 796.12 351.804C801.295 348.794 805.716 344.413 811.906 343.177C813.252 342.908 814.54 341.884 815.646 340.959C820.075 337.253 825.221 335.569 830.888 335.01C835.426 334.563 839.948 333.912 844.458 333.23C850.099 332.378 855.692 330.966 861.358 330.601C867.324 330.216 873.55 329.872 879.309 331.129C889.614 333.379 900.068 335.563 909.511 340.713C910.066 341.015 910.765 341.055 912.183 341.384ZM912.429 832.845C911.226 830.095 908.964 829.631 906.868 831.189C901.892 834.886 897.478 839.259 894.423 844.718C892.862 847.508 894.328 849.905 897.513 850.34C901.211 850.845 904.372 849.519 906.536 846.605C909.44 842.696 911.865 838.467 912.429 832.845Z" fill="black"/>
</svg>
